# MagicaVoxel @ Ephtracy

# group
o 

# material
mtllib road-straight.mtl
usemtl palette

# normals
vn -1 0 0
vn 1 0 0
vn 0 0 1
vn 0 0 -1
vn 0 -1 0
vn 0 1 0

# texcoords
vt 0.306641 0.5
vt 0.345703 0.5
vt 0.654297 0.5
vt 0.794922 0.5
vt 0.908203 0.5
vt 0.974609 0.5
vt 0.986328 0.5
vt 0.990234 0.5

# verts
v -2 0 2
v -2 0 -2
v -2 0.3 2
v -2 0.3 0.4
v -2 0.3 -0.5
v -2 0.3 -2
v -2 0.4 0.7
v -2 0.4 0.4
v -2 0.4 -2.38419e-07
v -2 0.4 -0.1
v -2 0.4 -0.5
v -2 0.4 -0.8
v -2 0.5 2
v -2 0.5 0.7
v -2 0.5 0.4
v -2 0.5 -2.38419e-07
v -2 0.5 -0.1
v -2 0.5 -0.5
v -2 0.5 -0.8
v -2 0.5 -2
v -2 0.6 0.7
v -2 0.6 0.4
v -2 0.6 -0.5
v -2 0.6 -0.8
v 2 0 2
v 2 0 -2
v 2 0.3 2
v 2 0.3 0.4
v 2 0.3 -0.5
v 2 0.3 -2
v 2 0.4 0.7
v 2 0.4 0.4
v 2 0.4 -2.38419e-07
v 2 0.4 -0.1
v 2 0.4 -0.5
v 2 0.4 -0.8
v 2 0.5 2
v 2 0.5 0.7
v 2 0.5 0.4
v 2 0.5 -2.38419e-07
v 2 0.5 -0.1
v 2 0.5 -0.5
v 2 0.5 -0.8
v 2 0.5 -2
v 2 0.6 0.7
v 2 0.6 0.4
v 2 0.6 -0.5
v 2 0.6 -0.8
v -2 0 2
v -2 0.3 2
v -2 0.5 2
v 2 0 2
v 2 0.3 2
v 2 0.5 2
v -2 0.5 0.7
v -2 0.6 0.7
v 2 0.5 0.7
v 2 0.6 0.7
v -2 0.5 -0.5
v -2 0.6 -0.5
v 1 0.5 -0.5
v 1.1 0.5 -0.5
v 2 0.5 -0.5
v 2 0.6 -0.5
v -2 0.5 0.4
v -2 0.6 0.4
v 2 0.5 0.4
v 2 0.6 0.4
v -2 0.5 -0.8
v -2 0.6 -0.8
v 2 0.5 -0.8
v 2 0.6 -0.8
v -2 0 -2
v -2 0.3 -2
v -2 0.5 -2
v 2 0 -2
v 2 0.3 -2
v 2 0.5 -2
v -2 0 2
v 2 0 2
v -2 0 -2
v 2 0 -2
v -2 0.5 2
v 2 0.5 2
v -2 0.5 0.7
v 2 0.5 0.7
v -2 0.5 0.4
v 2 0.5 0.4
v -0.8 0.5 0.3
v -0.7 0.5 0.3
v -0.8 0.5 0.2
v -0.7 0.5 0.2
v -2 0.5 -2.38419e-07
v -1.8 0.5 -2.38419e-07
v -1.7 0.5 -2.38419e-07
v -1.3 0.5 -2.38419e-07
v -1.2 0.5 -2.38419e-07
v -0.8 0.5 -2.38419e-07
v -0.7 0.5 -2.38419e-07
v -0.3 0.5 -2.38419e-07
v -0.2 0.5 -2.38419e-07
v 0.2 0.5 -2.38419e-07
v 0.3 0.5 -2.38419e-07
v 0.7 0.5 -2.38419e-07
v 0.8 0.5 -2.38419e-07
v 1.2 0.5 -2.38419e-07
v 1.3 0.5 -2.38419e-07
v 1.7 0.5 -2.38419e-07
v 1.8 0.5 -2.38419e-07
v 2 0.5 -2.38419e-07
v -2 0.5 -0.1
v -1.8 0.5 -0.1
v -1.7 0.5 -0.1
v -1.3 0.5 -0.1
v -1.2 0.5 -0.1
v -0.8 0.5 -0.1
v -0.7 0.5 -0.1
v -0.3 0.5 -0.1
v -0.2 0.5 -0.1
v 0.2 0.5 -0.1
v 0.3 0.5 -0.1
v 0.7 0.5 -0.1
v 0.8 0.5 -0.1
v 1.2 0.5 -0.1
v 1.3 0.5 -0.1
v 1.7 0.5 -0.1
v 1.8 0.5 -0.1
v 2 0.5 -0.1
v 1 0.5 -0.4
v 1.1 0.5 -0.4
v -2 0.5 -0.5
v 1 0.5 -0.5
v 1.1 0.5 -0.5
v 2 0.5 -0.5
v -2 0.5 -0.8
v 2 0.5 -0.8
v -2 0.5 -2
v 2 0.5 -2
v -2 0.6 0.7
v 2 0.6 0.7
v -2 0.6 0.4
v 2 0.6 0.4
v -2 0.6 -0.5
v 2 0.6 -0.5
v -2 0.6 -0.8
v 2 0.6 -0.8

# faces
f 3/4/1 2/4/1 1/4/1
f 4/4/1 2/4/1 3/4/1
f 5/4/1 2/4/1 4/4/1
f 6/4/1 2/4/1 5/4/1
f 7/3/1 4/3/1 3/3/1
f 8/5/1 5/5/1 4/5/1
f 8/3/1 4/3/1 7/3/1
f 9/5/1 5/5/1 8/5/1
f 10/5/1 5/5/1 9/5/1
f 11/3/1 6/3/1 5/3/1
f 11/5/1 5/5/1 10/5/1
f 12/3/1 6/3/1 11/3/1
f 13/3/1 7/3/1 3/3/1
f 14/6/1 8/6/1 7/6/1
f 14/3/1 7/3/1 13/3/1
f 15/7/1 9/7/1 8/7/1
f 15/6/1 8/6/1 14/6/1
f 16/2/1 10/2/1 9/2/1
f 16/7/1 9/7/1 15/7/1
f 17/7/1 11/7/1 10/7/1
f 17/2/1 10/2/1 16/2/1
f 18/6/1 12/6/1 11/6/1
f 18/7/1 11/7/1 17/7/1
f 19/3/1 6/3/1 12/3/1
f 19/6/1 12/6/1 18/6/1
f 20/3/1 6/3/1 19/3/1
f 21/6/1 15/6/1 14/6/1
f 22/6/1 15/6/1 21/6/1
f 23/6/1 19/6/1 18/6/1
f 24/6/1 19/6/1 23/6/1
f 25/4/2 26/4/2 27/4/2
f 27/4/2 26/4/2 28/4/2
f 28/4/2 26/4/2 29/4/2
f 29/4/2 26/4/2 30/4/2
f 27/3/2 28/3/2 31/3/2
f 28/5/2 29/5/2 32/5/2
f 31/3/2 28/3/2 32/3/2
f 32/5/2 29/5/2 33/5/2
f 33/5/2 29/5/2 34/5/2
f 29/3/2 30/3/2 35/3/2
f 34/5/2 29/5/2 35/5/2
f 35/3/2 30/3/2 36/3/2
f 27/3/2 31/3/2 37/3/2
f 31/6/2 32/6/2 38/6/2
f 37/3/2 31/3/2 38/3/2
f 32/7/2 33/7/2 39/7/2
f 38/6/2 32/6/2 39/6/2
f 33/2/2 34/2/2 40/2/2
f 39/7/2 33/7/2 40/7/2
f 34/7/2 35/7/2 41/7/2
f 40/2/2 34/2/2 41/2/2
f 35/6/2 36/6/2 42/6/2
f 41/7/2 35/7/2 42/7/2
f 36/3/2 30/3/2 43/3/2
f 42/6/2 36/6/2 43/6/2
f 43/3/2 30/3/2 44/3/2
f 38/6/2 39/6/2 45/6/2
f 45/6/2 39/6/2 46/6/2
f 42/6/2 43/6/2 47/6/2
f 47/6/2 43/6/2 48/6/2
f 52/4/3 50/4/3 49/4/3
f 53/3/3 51/3/3 50/3/3
f 53/4/3 50/4/3 52/4/3
f 54/3/3 51/3/3 53/3/3
f 57/6/3 56/6/3 55/6/3
f 58/6/3 56/6/3 57/6/3
f 61/6/3 60/6/3 59/6/3
f 62/6/3 60/6/3 61/6/3
f 63/6/3 60/6/3 62/6/3
f 64/6/3 60/6/3 63/6/3
f 65/6/4 66/6/4 67/6/4
f 67/6/4 66/6/4 68/6/4
f 69/6/4 70/6/4 71/6/4
f 71/6/4 70/6/4 72/6/4
f 73/4/4 74/4/4 76/4/4
f 74/3/4 75/3/4 77/3/4
f 76/4/4 74/4/4 77/4/4
f 77/3/4 75/3/4 78/3/4
f 81/4/5 80/4/5 79/4/5
f 82/4/5 80/4/5 81/4/5
f 83/3/6 84/3/6 85/3/6
f 85/3/6 84/3/6 86/3/6
f 87/7/6 88/7/6 89/7/6
f 89/7/6 88/7/6 90/7/6
f 87/7/6 89/7/6 91/7/6
f 89/8/6 90/8/6 91/8/6
f 90/7/6 88/7/6 92/7/6
f 91/8/6 90/8/6 92/8/6
f 87/7/6 91/7/6 93/7/6
f 91/7/6 92/7/6 93/7/6
f 93/7/6 92/7/6 94/7/6
f 94/7/6 92/7/6 95/7/6
f 95/7/6 92/7/6 96/7/6
f 96/7/6 92/7/6 97/7/6
f 97/7/6 92/7/6 98/7/6
f 92/7/6 88/7/6 99/7/6
f 98/7/6 92/7/6 99/7/6
f 99/7/6 88/7/6 100/7/6
f 100/7/6 88/7/6 101/7/6
f 101/7/6 88/7/6 102/7/6
f 102/7/6 88/7/6 103/7/6
f 103/7/6 88/7/6 104/7/6
f 104/7/6 88/7/6 105/7/6
f 105/7/6 88/7/6 106/7/6
f 106/7/6 88/7/6 107/7/6
f 107/7/6 88/7/6 108/7/6
f 108/7/6 88/7/6 109/7/6
f 109/7/6 88/7/6 110/7/6
f 93/2/6 94/2/6 111/2/6
f 94/7/6 95/7/6 112/7/6
f 111/2/6 94/2/6 112/2/6
f 95/2/6 96/2/6 113/2/6
f 112/7/6 95/7/6 113/7/6
f 96/7/6 97/7/6 114/7/6
f 113/2/6 96/2/6 114/2/6
f 97/2/6 98/2/6 115/2/6
f 114/7/6 97/7/6 115/7/6
f 98/7/6 99/7/6 116/7/6
f 115/2/6 98/2/6 116/2/6
f 99/2/6 100/2/6 117/2/6
f 116/7/6 99/7/6 117/7/6
f 100/7/6 101/7/6 118/7/6
f 117/2/6 100/2/6 118/2/6
f 101/2/6 102/2/6 119/2/6
f 118/7/6 101/7/6 119/7/6
f 102/7/6 103/7/6 120/7/6
f 119/2/6 102/2/6 120/2/6
f 103/2/6 104/2/6 121/2/6
f 120/7/6 103/7/6 121/7/6
f 104/7/6 105/7/6 122/7/6
f 121/2/6 104/2/6 122/2/6
f 105/2/6 106/2/6 123/2/6
f 122/7/6 105/7/6 123/7/6
f 106/7/6 107/7/6 124/7/6
f 123/2/6 106/2/6 124/2/6
f 107/2/6 108/2/6 125/2/6
f 124/7/6 107/7/6 125/7/6
f 108/7/6 109/7/6 126/7/6
f 125/2/6 108/2/6 126/2/6
f 109/2/6 110/2/6 127/2/6
f 126/7/6 109/7/6 127/7/6
f 127/2/6 110/2/6 128/2/6
f 113/7/6 114/7/6 129/7/6
f 111/7/6 112/7/6 129/7/6
f 127/7/6 128/7/6 129/7/6
f 126/7/6 127/7/6 129/7/6
f 125/7/6 126/7/6 129/7/6
f 124/7/6 125/7/6 129/7/6
f 123/7/6 124/7/6 129/7/6
f 122/7/6 123/7/6 129/7/6
f 121/7/6 122/7/6 129/7/6
f 120/7/6 121/7/6 129/7/6
f 119/7/6 120/7/6 129/7/6
f 118/7/6 119/7/6 129/7/6
f 117/7/6 118/7/6 129/7/6
f 116/7/6 117/7/6 129/7/6
f 115/7/6 116/7/6 129/7/6
f 114/7/6 115/7/6 129/7/6
f 112/7/6 113/7/6 129/7/6
f 129/7/6 128/7/6 130/7/6
f 111/7/6 129/7/6 131/7/6
f 129/8/6 130/8/6 132/8/6
f 131/7/6 129/7/6 132/7/6
f 130/7/6 128/7/6 133/7/6
f 132/8/6 130/8/6 133/8/6
f 133/7/6 128/7/6 134/7/6
f 135/3/6 136/3/6 137/3/6
f 137/3/6 136/3/6 138/3/6
f 139/6/6 140/6/6 141/6/6
f 141/6/6 140/6/6 142/6/6
f 143/6/6 144/6/6 145/6/6
f 145/6/6 144/6/6 146/6/6
